<svg width="637" height="116" viewBox="0 0 637 116" fill="none" xmlns="http://www.w3.org/2000/svg">
<path d="M95.4545 93V23.1818H137.591V30.6818H103.909V54.2727H135.409V61.7727H103.909V85.5H138.136V93H95.4545ZM171.511 94.0909C167.148 94.0909 163.295 92.9886 159.955 90.7841C156.614 88.5568 154 85.4205 152.114 81.375C150.227 77.3068 149.284 72.5 149.284 66.9545C149.284 61.4545 150.227 56.6818 152.114 52.6364C154 48.5909 156.625 45.4659 159.989 43.2614C163.352 41.0568 167.239 39.9545 171.648 39.9545C175.057 39.9545 177.75 40.5227 179.727 41.6591C181.727 42.7727 183.25 44.0455 184.295 45.4773C185.364 46.8864 186.193 48.0455 186.784 48.9545H187.466V23.1818H195.511V93H187.739V84.9545H186.784C186.193 85.9091 185.352 87.1136 184.261 88.5682C183.17 90 181.614 91.2841 179.591 92.4205C177.568 93.5341 174.875 94.0909 171.511 94.0909ZM172.602 86.8636C175.83 86.8636 178.557 86.0227 180.784 84.3409C183.011 82.6364 184.705 80.2841 185.864 77.2841C187.023 74.2614 187.602 70.7727 187.602 66.8182C187.602 62.9091 187.034 59.4886 185.898 56.5568C184.761 53.6023 183.08 51.3068 180.852 49.6705C178.625 48.0114 175.875 47.1818 172.602 47.1818C169.193 47.1818 166.352 48.0568 164.08 49.8068C161.83 51.5341 160.136 53.8864 159 56.8636C157.886 59.8182 157.33 63.1364 157.33 66.8182C157.33 70.5455 157.898 73.9318 159.034 76.9773C160.193 80 161.898 82.4091 164.148 84.2045C166.42 85.9773 169.239 86.8636 172.602 86.8636ZM226.773 94.2273C223.455 94.2273 220.443 93.6023 217.739 92.3523C215.034 91.0795 212.886 89.25 211.295 86.8636C209.705 84.4545 208.909 81.5455 208.909 78.1364C208.909 75.1364 209.5 72.7045 210.682 70.8409C211.864 68.9545 213.443 67.4773 215.42 66.4091C217.398 65.3409 219.58 64.5455 221.966 64.0227C224.375 63.4773 226.795 63.0455 229.227 62.7273C232.409 62.3182 234.989 62.0114 236.966 61.8068C238.966 61.5795 240.42 61.2045 241.33 60.6818C242.261 60.1591 242.727 59.25 242.727 57.9545V57.6818C242.727 54.3182 241.807 51.7045 239.966 49.8409C238.148 47.9773 235.386 47.0455 231.682 47.0455C227.841 47.0455 224.83 47.8864 222.648 49.5682C220.466 51.25 218.932 53.0455 218.045 54.9545L210.409 52.2273C211.773 49.0455 213.591 46.5682 215.864 44.7955C218.159 43 220.659 41.75 223.364 41.0455C226.091 40.3182 228.773 39.9545 231.409 39.9545C233.091 39.9545 235.023 40.1591 237.205 40.5682C239.409 40.9545 241.534 41.7614 243.58 42.9886C245.648 44.2159 247.364 46.0682 248.727 48.5455C250.091 51.0227 250.773 54.3409 250.773 58.5V93H242.727V85.9091H242.318C241.773 87.0455 240.864 88.2614 239.591 89.5568C238.318 90.8523 236.625 91.9545 234.511 92.8636C232.398 93.7727 229.818 94.2273 226.773 94.2273ZM228 87C231.182 87 233.864 86.375 236.045 85.125C238.25 83.875 239.909 82.2614 241.023 80.2841C242.159 78.3068 242.727 76.2273 242.727 74.0455V66.6818C242.386 67.0909 241.636 67.4659 240.477 67.8068C239.341 68.125 238.023 68.4091 236.523 68.6591C235.045 68.8864 233.602 69.0909 232.193 69.2727C230.807 69.4318 229.682 69.5682 228.818 69.6818C226.727 69.9545 224.773 70.3977 222.955 71.0114C221.159 71.6023 219.705 72.5 218.591 73.7045C217.5 74.8864 216.955 76.5 216.955 78.5455C216.955 81.3409 217.989 83.4545 220.057 84.8864C222.148 86.2955 224.795 87 228 87ZM293.548 93V23.1818H317.957C322.821 23.1818 326.832 24.0227 329.991 25.7045C333.151 27.3636 335.503 29.6023 337.048 32.4205C338.594 35.2159 339.366 38.3182 339.366 41.7273C339.366 44.7273 338.832 47.2045 337.764 49.1591C336.719 51.1136 335.332 52.6591 333.605 53.7955C331.901 54.9318 330.048 55.7727 328.048 56.3182V57C330.185 57.1364 332.332 57.8864 334.491 59.25C336.651 60.6136 338.457 62.5682 339.912 65.1136C341.366 67.6591 342.094 70.7727 342.094 74.4545C342.094 77.9545 341.298 81.1023 339.707 83.8977C338.116 86.6932 335.605 88.9091 332.173 90.5455C328.741 92.1818 324.276 93 318.776 93H293.548ZM302.003 85.5H318.776C324.298 85.5 328.219 84.4318 330.537 82.2955C332.878 80.1364 334.048 77.5227 334.048 74.4545C334.048 72.0909 333.446 69.9091 332.241 67.9091C331.037 65.8864 329.321 64.2727 327.094 63.0682C324.866 61.8409 322.23 61.2273 319.185 61.2273H302.003V85.5ZM302.003 53.8636H317.685C320.23 53.8636 322.526 53.3636 324.571 52.3636C326.639 51.3636 328.276 49.9545 329.48 48.1364C330.707 46.3182 331.321 44.1818 331.321 41.7273C331.321 38.6591 330.253 36.0568 328.116 33.9205C325.98 31.7614 322.594 30.6818 317.957 30.6818H302.003V53.8636ZM387.895 71.5909V40.6364H395.94V93H387.895V84.1364H387.349C386.122 86.7955 384.213 89.0568 381.622 90.9205C379.031 92.7614 375.759 93.6818 371.804 93.6818C368.531 93.6818 365.622 92.9659 363.077 91.5341C360.531 90.0795 358.531 87.8977 357.077 84.9886C355.622 82.0568 354.895 78.3636 354.895 73.9091V40.6364H362.94V73.3636C362.94 77.1818 364.009 80.2273 366.145 82.5C368.304 84.7727 371.054 85.9091 374.395 85.9091C376.395 85.9091 378.429 85.3977 380.497 84.375C382.588 83.3523 384.338 81.7841 385.747 79.6705C387.179 77.5568 387.895 74.8636 387.895 71.5909ZM371.804 33.5455L380.122 17.7273H389.531L378.895 33.5455H371.804ZM430.449 94.0909C426.085 94.0909 422.233 92.9886 418.892 90.7841C415.551 88.5568 412.938 85.4205 411.051 81.375C409.165 77.3068 408.222 72.5 408.222 66.9545C408.222 61.4545 409.165 56.6818 411.051 52.6364C412.938 48.5909 415.563 45.4659 418.926 43.2614C422.29 41.0568 426.176 39.9545 430.585 39.9545C433.994 39.9545 436.688 40.5227 438.665 41.6591C440.665 42.7727 442.188 44.0455 443.233 45.4773C444.301 46.8864 445.131 48.0455 445.722 48.9545H446.403V23.1818H454.449V93H446.676V84.9545H445.722C445.131 85.9091 444.29 87.1136 443.199 88.5682C442.108 90 440.551 91.2841 438.528 92.4205C436.506 93.5341 433.813 94.0909 430.449 94.0909ZM431.54 86.8636C434.767 86.8636 437.494 86.0227 439.722 84.3409C441.949 82.6364 443.642 80.2841 444.801 77.2841C445.96 74.2614 446.54 70.7727 446.54 66.8182C446.54 62.9091 445.972 59.4886 444.835 56.5568C443.699 53.6023 442.017 51.3068 439.79 49.6705C437.563 48.0114 434.813 47.1818 431.54 47.1818C428.131 47.1818 425.29 48.0568 423.017 49.8068C420.767 51.5341 419.074 53.8864 417.938 56.8636C416.824 59.8182 416.267 63.1364 416.267 66.8182C416.267 70.5455 416.835 73.9318 417.972 76.9773C419.131 80 420.835 82.4091 423.085 84.2045C425.358 85.9773 428.176 86.8636 431.54 86.8636ZM492.256 94.0909C487.21 94.0909 482.858 92.9773 479.199 90.75C475.562 88.5 472.756 85.3636 470.778 81.3409C468.824 77.2955 467.847 72.5909 467.847 67.2273C467.847 61.8636 468.824 57.1364 470.778 53.0455C472.756 48.9318 475.506 45.7273 479.028 43.4318C482.574 41.1136 486.71 39.9545 491.438 39.9545C494.165 39.9545 496.858 40.4091 499.517 41.3182C502.176 42.2273 504.597 43.7045 506.778 45.75C508.96 47.7727 510.699 50.4545 511.994 53.7955C513.29 57.1364 513.938 61.25 513.938 66.1364V69.5455H473.574V62.5909H505.756C505.756 59.6364 505.165 57 503.983 54.6818C502.824 52.3636 501.165 50.5341 499.006 49.1932C496.869 47.8523 494.347 47.1818 491.438 47.1818C488.233 47.1818 485.46 47.9773 483.119 49.5682C480.801 51.1364 479.017 53.1818 477.767 55.7045C476.517 58.2273 475.892 60.9318 475.892 63.8182V68.4545C475.892 72.4091 476.574 75.7614 477.938 78.5114C479.324 81.2386 481.244 83.3182 483.699 84.75C486.153 86.1591 489.006 86.8636 492.256 86.8636C494.369 86.8636 496.278 86.5682 497.983 85.9773C499.71 85.3636 501.199 84.4545 502.449 83.25C503.699 82.0227 504.665 80.5 505.347 78.6818L513.119 80.8636C512.301 83.5 510.926 85.8182 508.994 87.8182C507.063 89.7955 504.676 91.3409 501.835 92.4545C498.994 93.5455 495.801 94.0909 492.256 94.0909ZM548.949 40.6364V47.4545H521.812V40.6364H548.949ZM529.722 28.0909H537.767V78C537.767 80.2727 538.097 81.9773 538.756 83.1136C539.438 84.2273 540.301 84.9773 541.347 85.3636C542.415 85.7273 543.54 85.9091 544.722 85.9091C545.608 85.9091 546.335 85.8636 546.903 85.7727C547.472 85.6591 547.926 85.5682 548.267 85.5L549.903 92.7273C549.358 92.9318 548.597 93.1364 547.619 93.3409C546.642 93.5682 545.403 93.6818 543.903 93.6818C541.631 93.6818 539.403 93.1932 537.222 92.2159C535.063 91.2386 533.267 89.75 531.835 87.75C530.426 85.75 529.722 83.2273 529.722 80.1818V28.0909Z" fill="#5F5F5F"/>
<path d="M598.653 56.3449L590.771 62.1095C585.536 65.4628 583.888 67.5589 581.446 71.3809C579.876 77.7198 582.36 82.718 590.29 83.9189C598.221 85.1199 611.583 72.5819 611.583 72.5819L621.676 62.9742C621.676 62.9742 630.52 54.3273 632.058 52.646C633.596 50.9646 636.624 47.7941 636.624 41.2609C636.624 34.7277 631.866 31.413 628.261 32.0855C624.656 32.7581 623.175 33.6675 619.658 36.6011L608.411 47.7941C604.93 51.5197 602.771 53.3654 598.653 56.3449Z" fill="#549927"/>
<path d="M1.09308 51.1328C2.08648 46.3846 2.90539 43.698 7.76934 38.5893C10.9596 34.5459 13.1246 33.0764 19.7109 32L29.6262 32.8336L37.3754 32C43.0677 32.3303 45.6645 33.561 50.7078 35.5328C52.6551 36.2942 55.5481 39.4864 57.4238 43.7099C60.0625 46.3456 59.7091 56.9282 59.3514 61.8107C58.4507 64.629 55.3775 71.5597 50.2908 76.7359C45.2041 81.9121 34.3949 83.7354 29.6262 84C22.6297 83.8128 12.5302 78.7123 11.783 78.2443C11.783 78.2443 5.56561 72.9742 3.55693 69.1939C3.55693 69.1939 0.283401 63.2002 0.0201043 58.9924C-0.173353 55.9007 1.09308 51.1328 1.09308 51.1328Z" fill="#FF6347"/>
</svg>
