<svg width="200" height="34" viewBox="0 0 200 34" fill="none" xmlns="http://www.w3.org/2000/svg">
<path d="M0.698864 33V2.45454H19.1335V5.73579H4.39773V16.0568H18.179V19.3381H4.39773V29.7188H19.3722V33H0.698864ZM33.9737 33.4773C32.0646 33.4773 30.3793 32.995 28.9176 32.0305C27.456 31.0561 26.3125 29.6839 25.4872 27.9141C24.6619 26.1342 24.2493 24.0312 24.2493 21.6051C24.2493 19.1989 24.6619 17.1108 25.4872 15.3409C26.3125 13.571 27.4609 12.2038 28.9325 11.2393C30.4041 10.2749 32.1044 9.79261 34.0334 9.79261C35.5249 9.79261 36.7031 10.0412 37.5682 10.5384C38.4432 11.0256 39.1094 11.5824 39.5668 12.2088C40.0341 12.8253 40.397 13.3324 40.6555 13.7301H40.9538V2.45454H44.4737V33H41.0732V29.4801H40.6555C40.397 29.8977 40.0291 30.4247 39.5518 31.0611C39.0746 31.6875 38.3935 32.2493 37.5085 32.7464C36.6236 33.2337 35.4453 33.4773 33.9737 33.4773ZM34.451 30.3153C35.8629 30.3153 37.0561 29.9474 38.0305 29.2116C39.005 28.4659 39.7457 27.4368 40.2528 26.1243C40.7599 24.8018 41.0135 23.2756 41.0135 21.5455C41.0135 19.8352 40.7649 18.3388 40.2678 17.0561C39.7706 15.7635 39.0348 14.7592 38.0604 14.0433C37.0859 13.3175 35.8828 12.9545 34.451 12.9545C32.9595 12.9545 31.7166 13.3374 30.7223 14.103C29.7379 14.8587 28.9972 15.8878 28.5 17.1903C28.0128 18.483 27.7692 19.9347 27.7692 21.5455C27.7692 23.1761 28.0178 24.6577 28.5149 25.9901C29.022 27.3125 29.7678 28.3665 30.7521 29.152C31.7464 29.9276 32.9794 30.3153 34.451 30.3153ZM58.1506 33.5369C56.6989 33.5369 55.3814 33.2635 54.1982 32.7166C53.0149 32.1598 52.0753 31.3594 51.3793 30.3153C50.6832 29.2614 50.3352 27.9886 50.3352 26.4972C50.3352 25.1847 50.5938 24.1207 51.1108 23.3054C51.6278 22.4801 52.3189 21.8338 53.1839 21.3665C54.049 20.8991 55.0036 20.5511 56.0476 20.3224C57.1016 20.0838 58.1605 19.8949 59.2244 19.7557C60.6165 19.5767 61.745 19.4425 62.6101 19.353C63.4851 19.2536 64.1214 19.0895 64.5192 18.8608C64.9268 18.6321 65.1307 18.2344 65.1307 17.6676V17.5483C65.1307 16.0767 64.728 14.9332 63.9226 14.1179C63.1271 13.3026 61.919 12.8949 60.2983 12.8949C58.6179 12.8949 57.3004 13.2628 56.3459 13.9986C55.3913 14.7344 54.7202 15.5199 54.3324 16.3551L50.9915 15.1619C51.5881 13.7699 52.3835 12.6861 53.3778 11.9105C54.3821 11.125 55.4759 10.5781 56.6591 10.2699C57.8523 9.9517 59.0256 9.79261 60.179 9.79261C60.9148 9.79261 61.7599 9.8821 62.7145 10.0611C63.679 10.2301 64.6087 10.5831 65.5036 11.12C66.4084 11.657 67.1591 12.4673 67.7557 13.5511C68.3523 14.6349 68.6506 16.0866 68.6506 17.9062V33H65.1307V29.8977H64.9517C64.7131 30.3949 64.3153 30.9268 63.7585 31.4936C63.2017 32.0604 62.4609 32.5426 61.5362 32.9403C60.6115 33.3381 59.483 33.5369 58.1506 33.5369ZM58.6875 30.375C60.0795 30.375 61.2528 30.1016 62.2074 29.5547C63.1719 29.0078 63.8977 28.3018 64.3849 27.4368C64.8821 26.5717 65.1307 25.6619 65.1307 24.7074V21.4858C64.9815 21.6648 64.6534 21.8288 64.1463 21.978C63.6491 22.1172 63.0724 22.2415 62.4162 22.3509C61.7699 22.4503 61.1385 22.5398 60.522 22.6193C59.9155 22.6889 59.4233 22.7486 59.0455 22.7983C58.1307 22.9176 57.2756 23.1115 56.4801 23.38C55.6946 23.6385 55.0582 24.0312 54.571 24.5582C54.0938 25.0753 53.8551 25.7812 53.8551 26.6761C53.8551 27.8991 54.3075 28.8239 55.2124 29.4503C56.1271 30.0668 57.2855 30.375 58.6875 30.375ZM87.3649 33V2.45454H98.0439C100.172 2.45454 101.927 2.82244 103.309 3.55824C104.691 4.28409 105.72 5.26349 106.396 6.49645C107.072 7.71946 107.41 9.0767 107.41 10.5682C107.41 11.8807 107.177 12.9645 106.709 13.8196C106.252 14.6747 105.645 15.3509 104.89 15.848C104.144 16.3452 103.334 16.7131 102.459 16.9517V17.25C103.393 17.3097 104.333 17.6378 105.278 18.2344C106.222 18.831 107.013 19.6861 107.649 20.7997C108.285 21.9134 108.604 23.2756 108.604 24.8864C108.604 26.4176 108.256 27.7947 107.559 29.0178C106.863 30.2408 105.765 31.2102 104.263 31.9261C102.762 32.642 100.808 33 98.4018 33H87.3649ZM91.0637 29.7188H98.4018C100.818 29.7188 102.533 29.2514 103.547 28.3168C104.572 27.3722 105.084 26.2287 105.084 24.8864C105.084 23.8523 104.82 22.8977 104.293 22.0227C103.766 21.1378 103.015 20.4318 102.041 19.9048C101.067 19.3679 99.9132 19.0994 98.5808 19.0994H91.0637V29.7188ZM91.0637 15.8778H97.9245C99.0382 15.8778 100.042 15.6591 100.937 15.2216C101.842 14.7841 102.558 14.1676 103.085 13.3722C103.622 12.5767 103.89 11.642 103.89 10.5682C103.89 9.22585 103.423 8.08736 102.488 7.1527C101.554 6.2081 100.072 5.73579 98.0439 5.73579H91.0637V15.8778ZM128.642 23.6335V10.0909H132.161V33H128.642V29.1222H128.403C127.866 30.2855 127.031 31.2749 125.897 32.0902C124.764 32.8956 123.332 33.2983 121.602 33.2983C120.17 33.2983 118.897 32.9851 117.784 32.3587C116.67 31.7223 115.795 30.7678 115.159 29.495C114.522 28.2124 114.204 26.5966 114.204 24.6477V10.0909H117.724V24.4091C117.724 26.0795 118.191 27.4119 119.126 28.4062C120.07 29.4006 121.274 29.8977 122.735 29.8977C123.61 29.8977 124.5 29.674 125.405 29.2266C126.32 28.7791 127.085 28.093 127.702 27.1683C128.328 26.2436 128.642 25.0653 128.642 23.6335ZM121.602 6.98864L125.241 0.0681807H129.357L124.704 6.98864H121.602ZM147.259 33.4773C145.35 33.4773 143.664 32.995 142.203 32.0305C140.741 31.0561 139.598 29.6839 138.772 27.9141C137.947 26.1342 137.534 24.0312 137.534 21.6051C137.534 19.1989 137.947 17.1108 138.772 15.3409C139.598 13.571 140.746 12.2038 142.218 11.2393C143.689 10.2749 145.39 9.79261 147.319 9.79261C148.81 9.79261 149.988 10.0412 150.853 10.5384C151.728 11.0256 152.395 11.5824 152.852 12.2088C153.319 12.8253 153.682 13.3324 153.941 13.7301H154.239V2.45454H157.759V33H154.358V29.4801H153.941C153.682 29.8977 153.314 30.4247 152.837 31.0611C152.36 31.6875 151.679 32.2493 150.794 32.7464C149.909 33.2337 148.73 33.4773 147.259 33.4773ZM147.736 30.3153C149.148 30.3153 150.341 29.9474 151.316 29.2116C152.29 28.4659 153.031 27.4368 153.538 26.1243C154.045 24.8018 154.299 23.2756 154.299 21.5455C154.299 19.8352 154.05 18.3388 153.553 17.0561C153.056 15.7635 152.32 14.7592 151.346 14.0433C150.371 13.3175 149.168 12.9545 147.736 12.9545C146.245 12.9545 145.002 13.3374 144.007 14.103C143.023 14.8587 142.282 15.8878 141.785 17.1903C141.298 18.483 141.054 19.9347 141.054 21.5455C141.054 23.1761 141.303 24.6577 141.8 25.9901C142.307 27.3125 143.053 28.3665 144.037 29.152C145.032 29.9276 146.265 30.3153 147.736 30.3153ZM174.299 33.4773C172.092 33.4773 170.188 32.9901 168.587 32.0156C166.996 31.0312 165.768 29.6591 164.903 27.8991C164.048 26.1293 163.62 24.071 163.62 21.7244C163.62 19.3778 164.048 17.3097 164.903 15.5199C165.768 13.7202 166.971 12.3182 168.512 11.3139C170.064 10.2997 171.873 9.79261 173.941 9.79261C175.135 9.79261 176.313 9.99148 177.476 10.3892C178.64 10.7869 179.699 11.4332 180.653 12.3281C181.608 13.2131 182.368 14.3864 182.935 15.848C183.502 17.3097 183.785 19.1094 183.785 21.2472V22.7386H166.126V19.696H180.206C180.206 18.4034 179.947 17.25 179.43 16.2358C178.923 15.2216 178.197 14.4212 177.252 13.8345C176.318 13.2479 175.214 12.9545 173.941 12.9545C172.539 12.9545 171.326 13.3026 170.302 13.9986C169.288 14.6847 168.507 15.5795 167.961 16.6832C167.414 17.7869 167.14 18.9702 167.14 20.233V22.2614C167.14 23.9915 167.439 25.4581 168.035 26.6612C168.642 27.8544 169.482 28.7642 170.556 29.3906C171.63 30.0071 172.877 30.3153 174.299 30.3153C175.224 30.3153 176.059 30.1861 176.805 29.9276C177.561 29.6591 178.212 29.2614 178.759 28.7344C179.306 28.1974 179.728 27.5312 180.027 26.7358L183.427 27.6903C183.069 28.8438 182.468 29.858 181.623 30.733C180.777 31.598 179.733 32.2741 178.49 32.7614C177.248 33.2386 175.85 33.4773 174.299 33.4773ZM199.103 10.0909V13.0739H187.23V10.0909H199.103ZM190.691 4.60227H194.211V26.4375C194.211 27.4318 194.355 28.1776 194.643 28.6747C194.941 29.1619 195.319 29.4901 195.777 29.6591C196.244 29.8182 196.736 29.8977 197.253 29.8977C197.641 29.8977 197.959 29.8778 198.208 29.8381C198.456 29.7884 198.655 29.7486 198.804 29.7188L199.52 32.8807C199.282 32.9702 198.949 33.0597 198.521 33.1491C198.093 33.2486 197.551 33.2983 196.895 33.2983C195.901 33.2983 194.926 33.0845 193.972 32.657C193.027 32.2294 192.242 31.5781 191.615 30.7031C190.999 29.8281 190.691 28.7244 190.691 27.392V4.60227Z" fill="#5F5F5F"/>
</svg>
