<svg width="52" height="52" viewBox="0 0 52 52" fill="none" xmlns="http://www.w3.org/2000/svg">
<circle cx="26" cy="26" r="25.5" stroke="#28B958"/>
<path d="M10.5 22.5L11.5 17L15 14L21.5 14.5L26.5 19L29 16L34.5 13.5L40 15L42.5 20L42 25L26 41.5L13.5 28.5L10.5 22.5Z" fill="#28B958"/>
<path d="M26.4773 43.4773L11.1449 28.1449C9.92188 26.9219 9.10653 25.5 8.69886 23.8793C8.30114 22.2585 8.30611 20.6477 8.71378 19.0469C9.12145 17.4361 9.93182 16.0341 11.1449 14.8409C12.3878 13.6179 13.8047 12.8075 15.3956 12.4098C16.9964 12.0021 18.5923 12.0021 20.1832 12.4098C21.7841 12.8175 23.206 13.6278 24.4489 14.8409L26.4773 16.8097L28.5057 14.8409C29.7585 13.6278 31.1804 12.8175 32.7713 12.4098C34.3622 12.0021 35.9531 12.0021 37.544 12.4098C39.1449 12.8075 40.5668 13.6179 41.8097 14.8409C43.0227 16.0341 43.8331 17.4361 44.2408 19.0469C44.6484 20.6477 44.6484 22.2585 44.2408 23.8793C43.843 25.5 43.0327 26.9219 41.8097 28.1449L26.4773 43.4773ZM26.4773 38.8388L39.483 25.8182C40.2784 25.0327 40.8054 24.1129 41.0639 23.0589C41.3324 22.005 41.3374 20.956 41.0788 19.9119C40.8203 18.858 40.2983 17.9482 39.5128 17.1825C38.6974 16.3771 37.7678 15.8452 36.7237 15.5866C35.6896 15.3182 34.6506 15.3182 33.6065 15.5866C32.5625 15.8551 31.6229 16.392 30.7876 17.1974L26.4773 21.3885L22.1669 17.1974C21.3416 16.392 20.402 15.8551 19.348 15.5866C18.304 15.3182 17.2599 15.3182 16.2159 15.5866C15.1818 15.8452 14.2571 16.3771 13.4418 17.1825C12.6563 17.9482 12.1342 18.858 11.8757 19.9119C11.6172 20.956 11.6222 22.005 11.8906 23.0589C12.1591 24.1129 12.6861 25.0327 13.4716 25.8182L26.4773 38.8388Z" fill="#28B958"/>
</svg>
